<?xml version="1.0" encoding="UTF-8" standalone="no"?>
<svg
   xmlns:dc="http://purl.org/dc/elements/1.1/"
   xmlns:cc="http://creativecommons.org/ns#"
   xmlns:rdf="http://www.w3.org/1999/02/22-rdf-syntax-ns#"
   xmlns:svg="http://www.w3.org/2000/svg"
   xmlns="http://www.w3.org/2000/svg"
   xmlns:sodipodi="http://sodipodi.sourceforge.net/DTD/sodipodi-0.dtd"
   xmlns:inkscape="http://www.inkscape.org/namespaces/inkscape"
   version="1.0"
   width="183.000000pt"
   height="275.000000pt"
   viewBox="0 0 183.000000 275.000000"
   preserveAspectRatio="xMidYMid meet"
   id="svg2"
   inkscape:version="0.91 r13725"
   sodipodi:docname="krishna.svg">
  <defs
     id="defs34" />
  <sodipodi:namedview
     pagecolor="#ffffff"
     bordercolor="#666666"
     borderopacity="1"
     objecttolerance="10"
     gridtolerance="10"
     guidetolerance="10"
     inkscape:pageopacity="0"
     inkscape:pageshadow="2"
     inkscape:window-width="1280"
     inkscape:window-height="947"
     id="namedview32"
     showgrid="false"
     inkscape:zoom="2.3173805"
     inkscape:cx="54.303215"
     inkscape:cy="168.1642"
     inkscape:window-x="-9"
     inkscape:window-y="-9"
     inkscape:window-maximized="1"
     inkscape:current-layer="g6" />
  <metadata
     id="metadata4">
Created by potrace 1.10, written by Peter Selinger 2001-2011
<rdf:RDF>
  <cc:Work
     rdf:about="">
    <dc:format>image/svg+xml</dc:format>
    <dc:type
       rdf:resource="http://purl.org/dc/dcmitype/StillImage" />
  </cc:Work>
</rdf:RDF>
</metadata>
  <g
     transform="translate(0.000000,275.000000) scale(0.050000,-0.050000)"
     fill="#000000"
     stroke="none"
     id="g6">
    <path
       d="m 2377.4147,5101.3668 c 4.467,-22.7575 28.9108,-70.4154 54.2384,-107.2015 61.2596,-89.1614 102.1477,-240.2531 78.9831,-313.1002 -47.5565,-104.4039 -99.2832,-102.2834 -15.909,22.5158 19.2938,77.2308 -14.4543,181.2579 -74.4248,271.539 -55.5439,83.1039 -78.4877,138.4945 -63.4806,154.2863 6.859,7.3359 15.9718,-4.4971 20.5929,-28.0394 z"
       id="path10"
       inkscape:connector-curvature="0"
       sodipodi:nodetypes="scccccs" />
    <path
       d="m 2175.7432,5115.5844 c 259,-132 386.6666,-375 288.6666,-506 -27,-35 -28,-30 -18,62 26,226 -233.7082,450.8735 -370.3332,323.6665 -90.1108,-83.8991 128.7247,-354.6665 221.3332,-354.6665 l 62,0 -82,59 c -134,98 -168,241 -57,241 99,0 235,-260 164,-312 -17,-12 -31,-32 -31,-44 0,-50 -228.5516,93.7759 -331.309,111.9058 l -6.6345,-35.6971 c 90,-7 169.7522,-85.4 222.7522,-77.4 l 82.1913,0.1913 -79,36 c -97,45 -215,144 -264.3333,281.3333 -31.569,186.6886 141.3878,242.9135 198.6667,214.6667 z m 17.6666,-257 c 0,-40 128,-178 164,-178 27,0 -20,137 -67,193 -35,43 -97,33 -97,-15 z"
       id="path12"
       inkscape:connector-curvature="0"
       sodipodi:nodetypes="cccssccscscccccccsscs" />
    <path
       d="m 2067,4522.3334 c -95,-16 -41.3794,-245.5292 -33.8888,-269.5555 6.9369,-22.2506 19.2222,209.2222 19.2222,209.2222 0,0 25.6666,32.3333 274.6666,27.3333 158.165,28.5216 202.0097,-85.3495 198.6666,16.1667 -21,66 -336.6666,38.8333 -458.6666,16.8333 z"
       id="path14"
       inkscape:connector-curvature="0"
       sodipodi:nodetypes="cscccc" />
    <path
       d="M 2480.904,4218.373 C 2440.9089,4087.9892 2614.9093,4115.5024 1287.5179,3631.5508 83.490462,3193.1881 178.70349,3237.6803 213.3048,3196.5616 c 15.47952,-18.3953 14.69178,-46.0371 52.16851,-23.0521 77.81091,29.4357 653.97342,239.8015 1280.75629,466.8879 1213.2516,440.5799 1460.9838,551.9435 1373.5898,570.0107 -26.3137,5.4399 -258.4465,-79.8347 -332.1864,-108.6172 -86.1245,-32.7349 -44.8004,-34.619 -77.4881,-2.3636 29.6244,52.6535 62.4387,402.7962 41.516,404.5971 -3.4519,0.2971 -214.5226,6.3234 -163.2658,-14.1105 126.168,-50.2974 86.2527,-190.0306 92.5089,-271.5409 z"
       id="path16"
       inkscape:connector-curvature="0"
       sodipodi:nodetypes="ccsccsccssc" />
    <path
       d="m 2621.0511,4019.8084 c -6,-9 40.4106,-105.4674 73.4106,-137.4674 149.5651,-148.9597 -81.3794,-438.9727 -190.6667,-516.3334 l -29.6666,-21 c 0,0 -127.6667,-51.6666 -184.6667,-51.6666 -26,0 -81,39 -135,97 -95,101 -426.5678,422.1302 -367.0228,284.0817 11.0897,-25.7103 390.0228,-381.0817 450.0228,-412.0817 75,-40 114,-36 228,21 140,71 174,14 201,-336 l 13,-176 -99,-95 c -55,-53 -263.3335,-178.3334 -314.3335,-199.3334 -113.3333,-53.3333 -70.9999,-68 20.0001,-33 95,36 226.3334,130.3334 300.3334,194.3334 l 74,65 -14,-140 c -8,-77 -22,-228 -33,-335 -12,-120 -12,-250 -1,-340 73.0851,-195.7154 -70.4236,-275.0624 -182.3911,-518.3602 l -97.7299,-156.2916 c -11.1338,-17.8054 76.6034,13.5374 130.5465,154.7121 37,42 190.9078,349.9397 193.9078,345.9397 2,-4 5.6667,-107 25.6667,-176 41,-136 140,-325 172,-325 11,0 2,25 -20,55 -142.8641,191.716 -204.7482,432.937 -103,548 208,309 257.5719,847.1438 109,1040 -58,64 -61.8007,-4.085 -15.1438,-70.1732 168.1498,-182.0179 30.7798,-731.5813 -116.085,-939.7974 -64.2104,-78.8114 -48.8484,-76.4607 -67.7712,16.9706 -22,116 50,837 103,1035 17,64 24,127 15,140 -10,16 -20,0 -28,-45 -12,-69 -13,-68 -16,20 -4,133 -39,265 -82,310 -37,39 -36,42 48,143 113.9609,211.0908 132.8717,300.3909 70,446 -35.3183,81.7962 -112.4106,136.4674 -130.4106,107.4674 z"
       id="path18"
       inkscape:connector-curvature="0"
       sodipodi:nodetypes="ccscscscccccccccccccscccsccccccccccccsc" />
    <path
       d="m 1029.0225,3895.5495 c -47.61889,-70.8055 -50.98679,-312.2512 -2.0588,-333.0414 12.7134,-5.1179 18.5531,115.0417 12.6411,161.4834 -30.0904,236.3743 360.1383,220.1816 595.0885,103.7235 19.3493,60.9728 -168.5181,119.5241 -254.1321,148.3488 -144.4586,48.3129 -291.6411,5.7333 -351.5387,-80.5143 z"
       id="path20"
       inkscape:connector-curvature="0"
       sodipodi:nodetypes="ccsccc" />
    <path
       d="m 1720,3389 c 0,-137 45,-218 218,-396 168,-175 196.3333,-281.3334 241,-380 l 29,-165.6668 18,20.6666 C 2211.6667,2572.3332 2142,2840 1967,3023 c -162,170 -207,252 -207,376 0,45 -9,81 -20,81 -11,0 -20,-41 -20,-91 z"
       id="path22"
       inkscape:connector-curvature="0"
       sodipodi:nodetypes="scccccsss" />
    <path
       d="m 1351.0601,3291.539 c -178.5628,-150.2236 -265.7784,-223.2842 -259.1249,-78.6825 -9.5693,35.3008 -30.5706,152.304 -42.3643,158.4052 -36.2739,19.0479 -8.099,-244.058 28.9175,-266.7135 40.6251,-24.918 48.1051,-24.4333 103.7901,6.814 41.28,23.0921 487.4805,277.7021 549.8701,345.1882 76.7749,83.0464 -260.3335,-86.5027 -381.0885,-165.0114 z"
       id="path24"
       inkscape:connector-curvature="0"
       sodipodi:nodetypes="cccccsc" />
    <path
       d="m 2112.3478,2441.1391 c -179,-133 -287,-523 -238,-859 31,-213 340,-470 687,-570 l 117,-33.99997 c 32.3785,-9.57061 52.7897,-29.26739 25.837,-89.0413 C 2690.2051,673.3079 2661.703,635.55639 2599.5543,629.19348 l -15.9298,-26.09105 13.2037,-9.30678 c 51,-1 91.5459,-20.9154 136.85,229.97174 10,80 9.7805,59.98479 18.6979,138.28913 2.9717,17.08261 2.9717,8.08261 2.9717,17.08261 0,9 -46,26.99997 -103,39.99997 -230,53 -527,226.3333 -684,439 l -61.3334,101.3334 -6.6666,192.6666 c 16,306 112,544 260,643 53,36 504.9277,210.9766 24,80 -11,3 -43,-12 -72,-34 z"
       id="path26"
       inkscape:connector-curvature="0"
       sodipodi:nodetypes="ccccccccccsccccccc" />
    <path
       d="m 2260.955,1056.9348 c -11.2165,-33 -33.6494,-86.99992 -49.0721,-119.99992 -14.0206,-33 -37.8556,-131 -53.2782,-219 -30.8453,-188 -95.0284,-192.73913 -210.2153,-167.90435 l -70.7781,18.29353 -42.4894,-16.66309 c 92,-48.46522 294.0395,-57.72609 315.0704,17.27391 l 18.2268,63 50.4741,-96 c 28.0412,-52 44.8659,-103 36.4536,-112 -8.4124,-9 -1.4021,-17 15.4226,-17 43.4638,0 36.4535,37 -26.6391,155 -70.103,132 -70.103,169 1.402,334 32.2474,74 53.2783,152.99992 47.6701,176.99992 -9.8145,38 -14.0206,36 -32.2474,-16 z"
       id="path28"
       inkscape:connector-curvature="0"
       sodipodi:nodetypes="cccccccccsscccc" />
    <path
       d="m 2839.2732,911.59765 c 5,-31 12.5703,-80.17157 -20.4297,-137.17157 -32,-55 -58,-135 -65,-201 -13,-124 -47,-168 -150,-192 l -0.3333,-10.33333 1.3333,-7.66667 c 99,-3 183,88 183,199 0,57 20,118 61,191 61,106 23.8595,193.65686 -20.1405,207.65686 -14,5 4.5702,-19.48529 10.5702,-49.48529 z"
       id="path30"
       inkscape:connector-curvature="0"
       sodipodi:nodetypes="ccccccsccc" />
    <path
       style="fill:#000000;fill-opacity:1"
       id="path3344"
       transform="scale(1,-1)"
       sodipodi:type="arc"
       sodipodi:cx="517.50378"
       sodipodi:cy="-2816.978"
       sodipodi:rx="48.82111"
       sodipodi:ry="43.938999"
       sodipodi:start="0"
       sodipodi:end="6.2802182"
       sodipodi:open="true"
       d="m 566.32489,-2816.978 a 48.82111,43.938999 0 0 1 -48.78489,43.939 48.82111,43.938999 0 0 1 -48.85727,-43.8738 48.82111,43.938999 0 0 1 48.71241,-44.0041 48.82111,43.938999 0 0 1 48.92954,43.8085" />
    <path
       style="fill:#000000;fill-opacity:1"
       id="path3346"
       transform="scale(1,-1)"
       sodipodi:type="arc"
       sodipodi:cx="745.88"
       sodipodi:cy="-2859.2163"
       sodipodi:rx="43.938999"
       sodipodi:ry="53.70322"
       sodipodi:start="0"
       sodipodi:end="6.2802182"
       sodipodi:open="true"
       d="m 789.819,-2859.2163 a 43.938999,53.70322 0 0 1 -43.9064,53.7032 43.938999,53.70322 0 0 1 -43.97155,-53.6235 43.938999,53.70322 0 0 1 43.84118,-53.7828 43.938999,53.70322 0 0 1 44.03658,53.5437" />
    <rect
       style="fill:#000000;fill-opacity:1"
       id="rect3368"
       width="14.646333"
       height="456.47736"
       x="876.83624"
       y="-3192.55"
       transform="matrix(0.99127719,0.13179352,0.13179352,-0.99127719,0,0)" />
    <rect
       style="fill:#000000;fill-opacity:1"
       id="rect3368-9"
       width="14.646332"
       height="456.47733"
       x="2332.4336"
       y="-2313.0056"
       transform="matrix(0.79599127,0.6053081,0.6053081,-0.79599127,0,0)" />
    <path
       d="m 2250.5931,403.4349 c -27.4616,-15.22698 -71.1431,-39.04053 -135.9609,-27.35073 -62.5971,11.42814 -146.6726,8.72558 -211.1294,-7.09588 -121.0493,-29.86769 -173.9786,-12.82402 -231.5199,75.91156 l -9.8328,-3.19446 -6.7587,-3.85682 c 30.7868,-94.13911 144.899,-142.25781 249.307,-104.57541 53.6149,19.35042 117.7819,21.24653 200.3654,7.46352 120.4133,-21.39238 190.256,43.30031 188.4874,89.44001 -0.05,14.86599 -16.7766,-10.91368 -42.9581,-26.74179 z"
       id="path30-8"
       inkscape:connector-curvature="0"
       sodipodi:nodetypes="ccccccsccc" />
  </g>
</svg>
